<?xml version="1.0" encoding="UTF-8"?><svg xmlns="http://www.w3.org/2000/svg" viewBox="0 0 1286.33 850.18"><defs><style>.cls-1{fill:#fff;}.cls-2{fill:#cf5753;opacity:.49;}.cls-3{fill:#666766;}</style></defs><g id="Layer_3"><rect class="cls-2" width="1280" height="832"/></g><g id="Layer_2"><path class="cls-1" d="m1201.93,102.96l-10.75-3.38-13.61-5.22-77.9,240.65c-56.1,38.91-803.63-206.18-834.54-195.1-.01-.04-47.83-13.15-81.77,24.64-53.87,75.25-152.77,104.87-113.4,178.17,272.83,185.67,233.61,435.96,326.46,444.18.02,0,42.79,6.51,101.33,2.65,4.54.05,10.03-.33,17.47-1.43,30.63-3.01,64.54-9.01,98.37-20.11h-.09c260.81-52.02,224.8-401.45,484.62-306.54-17.79-30.91,60.08-206.23,86.45-303.26l17.36-55.25ZM254.6,452.38c-5.27,5.97-17.14,4.1-26.53-4.17-9.38-8.28-12.72-19.83-7.45-25.8,5.27-5.97,17.14-4.1,26.53,4.17,9.38,8.28,12.72,19.83,7.45,25.8Zm785.53-41.45c-295.04,56.57-152.25,356.35-576.87,347.76-170.2-21.8-63.52-322.9-225.97-379.77-.02.02-49.55-14.43-122.82-81.51,0,0-20.64-25.8,87.72-115.58,0,0,28.96-28.4,57.79-20.64,0,0,773.96,208.45,785.31,206.39s36.12,34.05-5.16,43.34Z"/></g><g id="buildinfgs"><polygon class="cls-3" points="1252.12 265.32 1254.74 255.1 1223.89 247.18 1221.26 257.4 1206.77 253.68 1179.61 359.51 1237.51 374.37 1264.67 268.54 1252.12 265.32"/><rect class="cls-3" x="761.98" y="192.89" width="121.16" height="69.81" transform="translate(86.05 -203.54) rotate(14.88)"/><polygon class="cls-3" points="705.44 136.58 702.78 148.92 692.16 146.63 693.05 142.49 666.19 136.69 666.63 134.64 659.45 133.09 666.1 102.29 629.35 94.36 622.7 125.16 589.98 118.1 590.54 115.49 581.33 113.5 587.98 82.69 551.22 74.76 544.58 105.57 504.81 96.99 511.78 64.66 475.03 56.73 465.98 98.68 422.47 89.3 426.22 71.96 424.43 71.58 432.46 34.37 395.71 26.43 387.68 63.65 343.76 54.17 336.18 89.28 380.1 98.76 377.21 112.16 287.59 92.82 279.7 129.37 376.82 150.33 376.86 150.13 406.12 156.45 406.15 156.3 447.61 165.25 454.45 133.56 412.99 124.61 416.86 106.69 418.64 107.07 419.34 103.83 462.84 113.21 461.6 118.98 461.84 119.04 460.37 125.87 495.18 133.38 486.32 174.44 523.07 182.37 531.93 141.31 536.64 142.33 534.57 151.92 569.84 159.53 562.37 194.14 600.33 202.33 607.97 166.93 613.43 168.11 612.69 171.52 648.26 179.2 640.21 216.49 675.44 224.09 684.22 183.38 694.85 185.68 692.19 198.01 730.15 206.21 743.4 144.77 705.44 136.58"/><rect class="cls-3" x="183.78" y="36.67" width="42.6" height="79.01" transform="translate(23.76 -46.23) rotate(13.64)"/><path class="cls-3" d="m301.36,720.43l-2.95-2.95c-3.97-3.97-10.47-3.97-14.44,0l-30,30c-1.29-.11-2.59-.08-3.88.08-.16-.19-.33-.38-.51-.56l-44-44c-.45-.45-.94-.84-1.45-1.19,3.38-4.68,2.97-11.29-1.23-15.5l-6.83-6.83,10.82-10.82-7.43-7.43c1.57.49,3.24.75,4.97.75,9.22,0,16.7-7.48,16.7-16.7s-7.48-16.7-16.7-16.7-16.7,7.48-16.7,16.7c0,1.73.26,3.4.75,4.97l-6.78-6.78-10.82,10.82-9.45-9.45c-3.69-3.69-9.24-4.45-13.7-2.3-.49-1.36-1.27-2.64-2.36-3.73l-38.21-38.21c1.1-3.11,1.38-6.45.82-9.67l29.31-29.31c3.97-3.97,3.97-10.47,0-14.44l-2.95-2.95c-3.97-3.97-10.47-3.97-14.44,0l-30.96,30.96c-4.78.07-9.55,1.92-13.2,5.57s-5.5,8.41-5.57,13.2l-30.85,30.85c-3.97,3.97-3.97,10.47,0,14.44l2.95,2.95c3.97,3.97,10.47,3.97,14.44,0l29.21-29.21c1.63.29,3.3.36,4.95.22l40.06,40.06c1.09,1.09,2.37,1.87,3.73,2.36-2.15,4.47-1.39,10.01,2.3,13.7l41.47,41.47c2.84,2.84,6.79,3.94,10.49,3.32.5,1.22,1.23,2.36,2.22,3.34l43.14,43.14c-.78,2.42-1.08,4.96-.87,7.47l-30,30c-3.97,3.97-3.97,10.47,0,14.44l2.95,2.95c3.97,3.97,10.47,3.97,14.44,0l30-30c5.39.45,10.94-1.38,15.06-5.5,4.13-4.13,5.95-9.67,5.5-15.06l30-30c3.97-3.97,3.97-10.47,0-14.44Z"/><rect class="cls-3" x="920.66" y="44.99" width="81.86" height="158.4" transform="translate(64.12 -242.71) rotate(14.88)"/><polygon class="cls-3" points="1231.13 23.02 1229 31.03 1192.19 21.25 1194.32 13.24 1163.74 5.12 1148.72 61.65 1179.3 69.77 1184.07 51.83 1220.87 61.61 1215.74 80.95 1246.32 89.07 1261.71 31.14 1231.13 23.02"/><path class="cls-3" d="m1083.89,108.57l-29.83,117.9-52.3-13.89-4.29,16.15-17.5-4.65-10.87,40.94,9.38,2.49-9.38,35.32,100.49,26.69,10.88-40.94-2.02-.54,7.83-22.88h6.81l49.36-140.98-58.55-15.62Zm-86.8,157.87l2.8-10.53,43.78,11.63-2.67,10.56-43.91-11.66Z"/></g></svg>