<?xml version="1.0" encoding="UTF-8"?><svg id="Layer_2" xmlns="http://www.w3.org/2000/svg" viewBox="0 0 1511.6 911.3"><defs><style>.cls-1{fill:#666766;}</style></defs><g id="Layer_3"><g id="Layer_5"><path class="cls-1" d="m1198.2,403.4c-12.4,2.2-855.6-224.9-855.6-224.9-31.4-8.5-63,22.5-63,22.5-118.1,97.8-95.6,126-95.6,126,79.8,73.1,133.8,88.8,133.8,88.8,177,62,60.8,390,246.2,413.8,462.6,9.4,307.1-317.3,628.5-378.9h0c45-10.2,18-49.5,5.7-47.3Zm-869.6,64.3c-10.2-9-23.2-11.1-28.9-4.5-5.7,6.5-2.1,19.1,8.1,28.1s23.2,11.1,28.9,4.5,2.1-19.1-8.1-28.1ZM0,0v911.3h1511.6V0H0Zm1349.9,175.3c-28.7,105.7-113.6,296.7-94.2,330.4-283.1-103.4-243.9,277.3-528,334h.1c-36.9,12.1-73.8,18.6-107.2,21.9-8.1,1.2-14.1,1.6-19,1.6-63.8,4.2-110.4-2.9-110.4-2.9-101.2-9-58.4-281.7-355.7-484-42.9-79.9,64.9-112.1,123.6-194.1,37-41.2,89.1-26.9,89.1-26.9,33.7-12.1,848.2,255,909.3,212.6l84.9-262.2,14.8,5.7,11.7,3.7h0l-19,60.2Z"/></g></g></svg>