<?xml version="1.0" encoding="UTF-8"?><svg id="Layer_2" xmlns="http://www.w3.org/2000/svg" viewBox="0 0 1513.2 911.3"><defs><style>.cls-1{fill:#779443;}</style></defs><g id="Layer_2-2"><g id="Layer_3"><path class="cls-1" d="m1145.7,293.2h0l47.8,12.7,2.9-11.5-47.7-12.7-3,11.5ZM0,0v911.3h1513.2V0H0Zm1327.2,8.5l33.3,8.9-2.3,8.7,40.1,10.7,2.3-8.7,33.3,8.9-16.8,63.1-33.3-8.9,5.6-21.1-40.1-10.6-5.2,19.5-33.3-8.8,16.4-61.7Zm-87,112.7h0l63.8,17-53.8,153.6h-7.4l-8.5,24.9,2.2.6-11.8,44.6-109.5-29.1,10.2-38.5-10.2-2.7,11.8-44.6,19.1,5.1,4.7-17.6,57,15.1,32.4-128.4Zm-154.2-77.8l86.2,22.9-44.3,166.8-86.2-22.9,44.3-166.8Zm-184.6,154.1l127.6,33.9-19.5,73.5-127.6-33.9,19.5-73.5ZM372.6,104l97.6,21.1,3.2-14.6-47.9-10.3,8.3-38.3,47.8,10.3,8.8-40.5,40,8.6-8.8,40.6,1.9.4-4.1,18.9,47.4,10.2,9.9-45.7,40.1,8.6-7.6,35.2,43.3,9.3,7.2-33.6,40,8.6-7.2,33.6,10,2.2-.6,2.8,35.7,7.7,7.2-33.6,40,8.6-7.2,33.6,7.8,1.7-.5,2.2,29.3,6.3-1,4.5,11.6,2.5,2.9-13.5,41.4,8.9-14.5,66.9-41.4-8.9,2.9-13.4-11.6-2.5-9.6,44.4-38.4-8.3,8.8-40.6-38.7-8.4.8-3.7-6-1.3-8.3,38.6-41.4-8.9,8.1-37.7-38.4-8.3,2.6-10.2-5.1-1.1-9.6,44.8-40-8.7,9.7-44.7-37.9-8.2,1.6-7.4-.3-.1,1.4-6.3-47.6-10.3-.8,3.5-1.9-.4-4.2,19.5,45.2,9.8-7.5,34.6-45.2-9.7v.2l-31.9-6.9v.2l-105.9-22.9,8.6-39.9Zm-102.3-65.4l45.1,10.9-20.3,83.7-45.1-11,20.3-83.6Zm117.4,765l-32.7,32.7c.5,5.9-1.5,11.9-6,16.4s-10.5,6.5-16.4,6l-32.7,32.7c-4.3,4.3-11.4,4.3-15.7,0l-3.2-3.2c-4.3-4.3-4.3-11.4,0-15.7l32.7-32.7c-.2-2.7.1-5.5,1-8.1l-47-47c-1.1-1.1-1.9-2.3-2.4-3.6-4,.7-8.3-.5-11.4-3.6l-45.2-45.2c-4-4-4.8-10.1-2.5-14.9-1.5-.5-2.9-1.4-4.1-2.6l-43.8-43.8c-1.8.2-3.6.1-5.4-.2l-31.8,31.8c-4.3,4.3-11.4,4.3-15.7,0l-3.2-3.2c-4.3-4.3-4.3-11.4,0-15.7l33.6-33.6c.1-5.2,2.1-10.4,6.1-14.4s9.2-6,14.4-6.1l33.7-33.7c4.3-4.3,11.4-4.3,15.7,0l3.2,3.2c4.3,4.3,4.3,11.4,0,15.7l-31.9,31.9c.6,3.5.3,7.1-.9,10.5l41.6,41.6c1.2,1.2,2,2.6,2.6,4.1,4.9-2.3,10.9-1.5,14.9,2.5l10.3,10.3,11.8-11.8,7.4,7.4c-.5-1.7-.8-3.5-.8-5.4,0-10,8.2-18.2,18.2-18.2s18.2,8.2,18.2,18.2-8.2,18.2-18.2,18.2c-1.9,0-3.7-.3-5.4-.8l8.1,8.1-11.8,11.8,7.5,7.5c4.6,4.6,5,11.8,1.3,16.9.6.4,1.1.8,1.6,1.3l47.9,47.9c.2.2.4.4.5.6,1.4-.2,2.8-.2,4.2-.1l32.7-32.7c4.3-4.3,11.4-4.3,15.7,0l3.2,3.2h0c4.4,4.4,4.4,11.4.1,15.8Zm340,36.1h0c-36.8,12.1-73.7,18.6-107.1,21.9-8.1,1.2-14.1,1.6-19,1.6-63.8,4.2-110.4-2.9-110.4-2.9-101.2-9-58.4-281.7-355.7-484-42.9-79.9,64.9-112.1,123.6-194.1,37-41.2,89.1-26.9,89.1-26.9,33.7-12.1,848.2,255,909.3,212.6l84.9-262.2,14.8,5.7,11.7,3.7h0l-18.9,60.2c-28.7,105.7-113.6,296.7-94.2,330.4-283.2-103.4-243.9,277.3-528.1,334Zm679.9-428.9l-63.1-16.2,29.6-115.3,15.8,4,2.9-11.1,33.6,8.6-2.9,11.1,13.7,3.5-29.6,115.4Zm-209.4-7.4c-12.4,2.2-855.6-224.9-855.6-224.9-31.4-8.5-63,22.5-63,22.5-118.1,97.8-95.6,126-95.6,126,79.8,73.1,133.8,88.8,133.8,88.8,177,62,60.8,390,246.2,413.8,462.6,9.4,307.1-317.3,628.5-378.9h0c45-10.2,18-49.5,5.7-47.3Zm-869.6,64.3c-10.2-9-23.2-11.1-28.9-4.5-5.7,6.5-2.1,19.1,8.1,28.1s23.2,11.1,28.9,4.5,2.1-19.1-8.1-28.1Z"/></g></g></svg>