<?xml version="1.0" encoding="utf-8"?>
<!-- Generator: Adobe Illustrator 27.7.0, SVG Export Plug-In . SVG Version: 6.00 Build 0)  -->
<svg version="1.1" xmlns="http://www.w3.org/2000/svg" xmlns:xlink="http://www.w3.org/1999/xlink" x="0px" y="0px"
	 viewBox="0 0 1513.2 911.3" style="enable-background:new 0 0 1513.2 911.3;" xml:space="preserve">
<style type="text/css">
	.st0{display:none;}
	.st1{display:inline;fill:#779443;}
	.st2{display:inline;}
	.st3{fill:#FFFFFF;}
	.st4{display:inline;fill:#666766;}
	.st5{fill:#666766;}
	.st6{fill:#779443;}
</style>
<g id="Layer_1" class="st0">
	<g id="Layer_7">
		<rect class="st1" width="1513.2" height="911.3"/>
	</g>
	<g id="Layer_9" class="st2">
		<rect class="st3" width="1511.6" height="911.3"/>
	</g>
	<g id="Layer_6">
		<polygon class="st4" points="1423.5,292 1426.4,280.9 1392.8,272.2 1389.9,283.4 1374.1,279.3 1344.5,394.6 1407.6,410.8 
			1437.2,295.5 		"/>
		
			<rect x="917.5" y="185.2" transform="matrix(0.2568 -0.9665 0.9665 0.2568 467.4132 1110.1405)" class="st4" width="76.1" height="132"/>
		<polygon class="st4" points="827.9,151.7 825,165.2 813.4,162.7 814.4,158.2 785.1,151.9 785.6,149.6 777.8,147.9 785,114.4 
			745,105.7 737.8,139.3 702.1,131.6 702.7,128.7 692.7,126.6 699.9,93 659.9,84.4 652.6,117.9 609.3,108.6 616.9,73.4 576.8,64.7 
			567,110.4 519.6,100.2 523.7,81.3 521.7,80.9 530.5,40.3 490.4,31.7 481.7,72.3 433.8,61.9 425.6,100.2 473.4,110.5 470.3,125.1 
			372.6,104.1 364,143.9 469.8,166.7 469.9,166.5 501.8,173.4 501.8,173.2 547,182.9 554.4,148.4 509.3,138.7 513.5,119.2 
			515.4,119.6 516.2,116 563.6,126.3 562.2,132.6 562.5,132.6 560.9,140.1 598.8,148.2 589.2,193 629.2,201.6 638.8,156.9 644,158 
			641.7,168.4 680.2,176.7 672,214.4 713.4,223.4 721.7,184.8 727.7,186.1 726.8,189.8 765.6,198.1 756.8,238.8 795.2,247.1 
			804.8,202.7 816.4,205.2 813.5,218.7 854.8,227.6 869.3,160.6 		"/>
		
			<rect x="239.7" y="62.7" transform="matrix(0.2358 -0.9718 0.9718 0.2358 132.6201 340.4081)" class="st4" width="86.1" height="46.4"/>
		<path class="st4" d="M387.6,787.8l-3.2-3.2c-4.3-4.3-11.4-4.3-15.7,0L336,817.3c-1.4-0.1-2.8-0.1-4.2,0.1
			c-0.2-0.2-0.4-0.4-0.5-0.6l-47.9-47.9c-0.5-0.5-1-0.9-1.6-1.3c3.7-5.1,3.2-12.3-1.3-16.9l-7.5-7.5l11.8-11.8l-8.1-8.1
			c1.7,0.5,3.5,0.8,5.4,0.8c10,0,18.2-8.2,18.2-18.2s-8.1-18.2-18.2-18.2s-18.2,8.2-18.2,18.2c0,1.9,0.3,3.7,0.8,5.4l-7.4-7.4
			l-11.8,11.8l-10.3-10.3c-4-4-10.1-4.8-14.9-2.5c-0.5-1.5-1.4-2.9-2.6-4.1L176,657.3c1.2-3.4,1.5-7,0.9-10.5l31.9-31.9
			c4.3-4.3,4.3-11.4,0-15.7l-3.2-3.2c-4.3-4.3-11.4-4.3-15.7,0l-33.7,33.7c-5.2,0.1-10.4,2.1-14.4,6.1s-6,9.2-6.1,14.4l-33.6,33.6
			c-4.3,4.3-4.3,11.4,0,15.7l3.2,3.2c4.3,4.3,11.4,4.3,15.7,0l31.8-31.8c1.8,0.3,3.6,0.4,5.4,0.2l43.7,43.7c1.2,1.2,2.6,2,4.1,2.6
			c-2.3,4.9-1.5,10.9,2.5,14.9l45.2,45.2c3.1,3.1,7.4,4.3,11.4,3.6c0.5,1.3,1.4,2.6,2.4,3.6l47,47c-0.9,2.6-1.2,5.4-1,8.1
			l-32.7,32.7c-4.3,4.3-4.3,11.4,0,15.7l3.2,3.2c4.3,4.3,11.4,4.3,15.7,0l32.7-32.7c5.9,0.5,11.9-1.5,16.4-6s6.5-10.5,6-16.4
			l32.7-32.7C392,799.2,392,792.2,387.6,787.8L387.6,787.8z"/>
		
			<rect x="1020.7" y="93.6" transform="matrix(0.2568 -0.9665 0.9665 0.2568 689.1523 1172.5935)" class="st4" width="172.6" height="89.2"/>
		<polygon class="st4" points="1400.7,28 1398.3,36.7 1358.2,26.1 1360.6,17.3 1327.2,8.5 1310.9,70.1 1344.2,78.9 1349.4,59.4 
			1389.5,70 1383.9,91.1 1417.2,100 1434,36.8 		"/>
		<path class="st4" d="M1240.2,121.2l-32.5,128.5l-57-15.1l-4.7,17.6l-19.1-5.1l-11.8,44.6l10.2,2.7l-10.2,38.5l109.5,29.1
			l11.8-44.6l-2.2-0.6l8.5-24.9h7.4l53.8-153.6L1240.2,121.2L1240.2,121.2z M1145.7,293.2l3.1-11.5l47.7,12.7l-2.9,11.5
			L1145.7,293.2L1145.7,293.2z"/>
	</g>
</g>
<g id="Layer_3_00000082362013454321711130000008439971733079319996_" class="st0">
	<g id="Layer_5" class="st2">
		<g>
			<g>
				<g>
					<path class="st5" d="M1198.2,403.4c-12.4,2.2-855.6-224.9-855.6-224.9c-31.4-8.5-63,22.5-63,22.5C161.5,298.8,184,327,184,327
						c79.8,73.1,133.8,88.8,133.8,88.8c177,62,60.8,390,246.2,413.8c462.6,9.4,307.1-317.3,628.5-378.9l0,0
						C1237.5,440.5,1210.5,401.2,1198.2,403.4z M328.6,467.7c-10.2-9-23.2-11.1-28.9-4.5c-5.7,6.5-2.1,19.1,8.1,28.1
						s23.2,11.1,28.9,4.5S338.8,476.7,328.6,467.7z M0,0v911.3h1511.6V0H0z M1349.9,175.3c-28.7,105.7-113.6,296.7-94.2,330.4
						c-283.1-103.4-243.9,277.3-528,334h0.1c-36.9,12.1-73.8,18.6-107.2,21.9c-8.1,1.2-14.1,1.6-19,1.6
						c-63.8,4.2-110.4-2.9-110.4-2.9c-101.2-9-58.4-281.7-355.7-484c-42.9-79.9,64.9-112.1,123.6-194.1c37-41.2,89.1-26.9,89.1-26.9
						c33.7-12.1,848.2,255,909.3,212.6l84.9-262.2l14.8,5.7l11.7,3.7l0,0L1349.9,175.3z"/>
				</g>
			</g>
		</g>
	</g>
</g>
<g id="Layer_2">
	<g>
		<g>
			<path class="st6" d="M0,0v911.3h1513.2V0H0z M1327.2,8.5l33.3,8.9l-2.3,8.7l40.1,10.7l2.3-8.7l33.3,8.9l-16.8,63.1l-33.3-8.9
				l5.6-21.1l-40.1-10.6l-5.2,19.5l-33.3-8.8L1327.2,8.5z M1240.2,121.2L1240.2,121.2l63.8,17l-53.8,153.6h-7.4l-8.5,24.9l2.2,0.6
				l-11.8,44.6l-109.5-29.1l10.2-38.5l-10.2-2.7L1127,247l19.1,5.1l4.7-17.6l57,15.1L1240.2,121.2z M1086,43.4l86.2,22.9
				l-44.3,166.8l-86.2-22.9L1086,43.4z M901.4,197.5l127.6,33.9l-19.5,73.5L881.9,271L901.4,197.5z M372.6,104l97.6,21.1l3.2-14.6
				l-47.9-10.3l8.3-38.3l47.8,10.3l8.8-40.5l40,8.6l-8.8,40.6l1.9,0.4l-4.1,18.9l47.4,10.2l9.9-45.7l40.1,8.6l-7.6,35.2l43.3,9.3
				l7.2-33.6l40,8.6l-7.2,33.6l10,2.2l-0.6,2.8l35.7,7.7l7.2-33.6l40,8.6l-7.2,33.6l7.8,1.7l-0.5,2.2l29.3,6.3l-1,4.5l11.6,2.5
				l2.9-13.5l41.4,8.9l-14.5,66.9l-41.4-8.9l2.9-13.4l-11.6-2.5l-9.6,44.4l-38.4-8.3l8.8-40.6l-38.7-8.4l0.8-3.7l-6-1.3l-8.3,38.6
				l-41.4-8.9l8.1-37.7l-38.4-8.3L644,158l-5.1-1.1l-9.6,44.8l-40-8.7l9.7-44.7l-37.9-8.2l1.6-7.4l-0.3-0.1l1.4-6.3L516.2,116
				l-0.8,3.5l-1.9-0.4l-4.2,19.5l45.2,9.8L547,183l-45.2-9.7v0.2l-31.9-6.9v0.2L364,143.9L372.6,104z M270.3,38.6l45.1,10.9
				l-20.3,83.7l-45.1-11L270.3,38.6z M387.7,803.6L355,836.3c0.5,5.9-1.5,11.9-6,16.4s-10.5,6.5-16.4,6l-32.7,32.7
				c-4.3,4.3-11.4,4.3-15.7,0l-3.2-3.2c-4.3-4.3-4.3-11.4,0-15.7l32.7-32.7c-0.2-2.7,0.1-5.5,1-8.1l-47-47c-1.1-1.1-1.9-2.3-2.4-3.6
				c-4,0.7-8.3-0.5-11.4-3.6l-45.2-45.2c-4-4-4.8-10.1-2.5-14.9c-1.5-0.5-2.9-1.4-4.1-2.6L158.3,671c-1.8,0.2-3.6,0.1-5.4-0.2
				l-31.8,31.8c-4.3,4.3-11.4,4.3-15.7,0l-3.2-3.2c-4.3-4.3-4.3-11.4,0-15.7l33.6-33.6c0.1-5.2,2.1-10.4,6.1-14.4s9.2-6,14.4-6.1
				l33.7-33.7c4.3-4.3,11.4-4.3,15.7,0l3.2,3.2c4.3,4.3,4.3,11.4,0,15.7L177,646.7c0.6,3.5,0.3,7.1-0.9,10.5l41.6,41.6
				c1.2,1.2,2,2.6,2.6,4.1c4.9-2.3,10.9-1.5,14.9,2.5l10.3,10.3l11.8-11.8l7.4,7.4c-0.5-1.7-0.8-3.5-0.8-5.4
				c0-10,8.2-18.2,18.2-18.2c10.1,0,18.2,8.2,18.2,18.2s-8.2,18.2-18.2,18.2c-1.9,0-3.7-0.3-5.4-0.8l8.1,8.1L273,743.2l7.5,7.5
				c4.6,4.6,5,11.8,1.3,16.9c0.6,0.4,1.1,0.8,1.6,1.3l47.9,47.9c0.2,0.2,0.4,0.4,0.5,0.6c1.4-0.2,2.8-0.2,4.2-0.1l32.7-32.7
				c4.3-4.3,11.4-4.3,15.7,0l3.2,3.2l0,0C392,792.2,392,799.2,387.7,803.6z M727.7,839.7L727.7,839.7
				c-36.8,12.1-73.7,18.6-107.1,21.9c-8.1,1.2-14.1,1.6-19,1.6c-63.8,4.2-110.4-2.9-110.4-2.9c-101.2-9-58.4-281.7-355.7-484
				c-42.9-79.9,64.9-112.1,123.6-194.1c37-41.2,89.1-26.9,89.1-26.9c33.7-12.1,848.2,255,909.3,212.6l84.9-262.2l14.8,5.7l11.7,3.7
				l0,0l-18.9,60.2c-28.7,105.7-113.6,296.7-94.2,330.4C972.6,402.3,1011.9,783,727.7,839.7z M1407.6,410.8l-63.1-16.2l29.6-115.3
				l15.8,4l2.9-11.1l33.6,8.6l-2.9,11.1l13.7,3.5L1407.6,410.8z M1145.7,293.2L1145.7,293.2l47.8,12.7l2.9-11.5l-47.7-12.7
				L1145.7,293.2z M328.6,467.7c-10.2-9-23.2-11.1-28.9-4.5c-5.7,6.5-2.1,19.1,8.1,28.1s23.2,11.1,28.9,4.5S338.8,476.7,328.6,467.7
				z M1198.2,403.4c-12.4,2.2-855.6-224.9-855.6-224.9c-31.4-8.5-63,22.5-63,22.5C161.5,298.8,184,327,184,327
				c79.8,73.1,133.8,88.8,133.8,88.8c177,62,60.8,390,246.2,413.8c462.6,9.4,307.1-317.3,628.5-378.9l0,0
				C1237.5,440.5,1210.5,401.2,1198.2,403.4z"/>
		</g>
	</g>
</g>
</svg>
