<?xml version="1.0" encoding="UTF-8"?><svg id="Layer_7" xmlns="http://www.w3.org/2000/svg" viewBox="0 0 1513.19 911.32"><defs><style>.cls-1{fill:#fff;}.cls-2{fill:#666766;}.cls-3{fill:#779443;}</style></defs><rect class="cls-3" y="2.91" width="1513.19" height="920.66"/><path class="cls-1" d="m1368.84,115.09l-11.71-3.68-14.83-5.69-84.88,262.2c-61.12,42.4-875.6-224.65-909.27-212.57-.01-.04-52.12-14.33-89.09,26.85-58.69,81.98-166.45,114.26-123.55,194.12,297.27,202.29,254.53,475,355.69,483.95.02,0,46.62,7.09,110.4,2.89,4.94.06,10.93-.36,19.03-1.56,33.37-3.28,70.32-9.82,107.18-21.91h-.1c284.16-56.68,244.93-437.4,528.02-333.99-19.38-33.68,65.46-224.7,94.19-330.42l18.92-60.19ZM336.68,495.8c-5.74,6.51-18.68,4.47-28.9-4.55-10.22-9.02-13.86-21.6-8.12-28.11,5.74-6.51,18.68-4.47,28.9,4.55,10.22,9.02,13.86,21.6,8.12,28.11Zm855.87-45.16c-321.46,61.64-165.89,388.26-628.52,378.9-185.44-23.75-69.21-351.82-246.21-413.77-.02.02-53.99-15.72-133.82-88.81,0,0-22.49-28.11,95.57-125.93,0,0,31.55-30.94,62.96-22.49,0,0,843.27,227.12,855.64,224.87,12.37-2.25,39.35,37.1-5.62,47.22Z"/><polygon class="cls-2" points="1423.52 291.98 1426.38 280.85 1392.77 272.22 1389.91 283.36 1374.12 279.31 1344.53 394.61 1407.61 410.8 1437.2 295.49 1423.52 291.98"/><rect class="cls-2" x="889.5" y="213.07" width="132.01" height="76.06" transform="translate(96.49 -236.89) rotate(14.88)"/><polygon class="cls-2" points="827.9 151.72 825 165.17 813.42 162.67 814.39 158.16 785.13 151.85 785.61 149.6 777.79 147.92 785.03 114.36 744.99 105.72 737.75 139.28 702.1 131.58 702.71 128.74 692.67 126.57 699.92 93 659.87 84.36 652.63 117.93 609.3 108.58 616.9 73.36 576.85 64.72 566.99 110.43 519.59 100.2 523.67 81.32 521.73 80.9 530.48 40.35 490.43 31.71 481.68 72.26 433.83 61.93 425.57 100.19 473.43 110.51 470.27 125.12 372.63 104.05 364.03 143.87 469.84 166.7 469.89 166.49 501.77 173.37 501.81 173.21 546.98 182.95 554.43 148.43 509.26 138.68 513.47 119.15 515.41 119.57 516.18 116.04 563.57 126.26 562.22 132.55 562.48 132.61 560.88 140.05 598.81 148.23 589.15 192.97 629.2 201.62 638.85 156.87 643.98 157.98 641.73 168.43 680.15 176.72 672.02 214.43 713.38 223.36 721.7 184.79 727.65 186.07 726.85 189.79 765.59 198.15 756.83 238.78 795.21 247.07 804.78 202.72 816.36 205.21 813.45 218.66 854.81 227.58 869.26 160.65 827.9 151.72"/><rect class="cls-2" x="259.53" y="42.86" width="46.41" height="86.09" transform="translate(28.24 -64.27) rotate(13.64)"/><path class="cls-2" d="m387.64,787.85l-3.21-3.21c-4.33-4.33-11.41-4.33-15.73,0l-32.69,32.69c-1.41-.12-2.83-.08-4.23.09-.18-.21-.36-.42-.55-.61l-47.94-47.94c-.49-.49-1.02-.92-1.58-1.3,3.68-5.1,3.24-12.31-1.34-16.89l-7.45-7.45,11.79-11.79-8.09-8.09c1.71.53,3.53.82,5.41.82,10.05,0,18.2-8.15,18.2-18.2s-8.15-18.2-18.2-18.2-18.2,8.15-18.2,18.2c0,1.89.29,3.7.82,5.41l-7.39-7.39-11.79,11.79-10.29-10.29c-4.02-4.02-10.06-4.85-14.93-2.51-.54-1.49-1.38-2.88-2.57-4.07l-41.64-41.64c1.2-3.39,1.51-7.03.89-10.54l31.94-31.94c4.33-4.33,4.33-11.41,0-15.73l-3.21-3.21c-4.33-4.33-11.41-4.33-15.73,0l-33.73,33.73c-5.21.08-10.4,2.09-14.38,6.07s-5.99,9.17-6.07,14.38l-33.61,33.61c-4.33,4.33-4.33,11.41,0,15.73l3.21,3.21c4.33,4.33,11.41,4.33,15.73,0l31.82-31.82c1.78.31,3.59.4,5.39.24l43.65,43.65c1.19,1.19,2.58,2.03,4.07,2.57-2.34,4.87-1.51,10.91,2.51,14.93l45.19,45.19c3.1,3.1,7.39,4.3,11.43,3.62.54,1.33,1.35,2.57,2.42,3.64l47,47c-.85,2.64-1.18,5.41-.95,8.14l-32.69,32.69c-4.33,4.33-4.33,11.41,0,15.73l3.21,3.21c4.33,4.33,11.41,4.33,15.73,0l32.69-32.69c5.87.49,11.92-1.5,16.41-6,4.49-4.49,6.49-10.54,6-16.41l32.69-32.69c4.33-4.33,4.33-11.41,0-15.73Z"/><rect class="cls-2" x="1062.39" y="51.93" width="89.19" height="172.58" transform="translate(72.59 -279.57) rotate(14.88)"/><polygon class="cls-2" points="1400.65 27.99 1398.34 36.71 1358.23 26.06 1360.55 17.34 1327.23 8.48 1310.87 70.08 1344.19 78.93 1349.38 59.38 1389.49 70.03 1383.89 91.11 1417.21 99.96 1433.97 36.84 1400.65 27.99"/><path class="cls-2" d="m1240.24,121.21l-32.5,128.46-56.98-15.14-4.68,17.6-19.06-5.06-11.85,44.61,10.22,2.72-10.22,38.48,109.49,29.08,11.85-44.61-2.2-.58,8.53-24.93h7.42l53.78-153.6-63.8-17.02Zm-94.57,172.01l3.05-11.47,47.7,12.67-2.91,11.51-47.84-12.71Z"/></svg>