<?xml version="1.0" encoding="UTF-8"?><svg xmlns="http://www.w3.org/2000/svg" xmlns:xlink="http://www.w3.org/1999/xlink" viewBox="0 0 1440 1024"><defs><style>.cls-1,.cls-2{fill:#fff;}.cls-2{opacity:.71;}.cls-3{fill:url(#linear-gradient);}</style><linearGradient id="linear-gradient" x1="211.51" y1="512" x2="1235.51" y2="512" gradientUnits="userSpaceOnUse"><stop offset="0" stop-color="#79b2c6"/><stop offset="1" stop-color="#fff"/></linearGradient></defs><g id="sky_background"><rect class="cls-3" x="208" y="-208" width="1024" height="1440" transform="translate(1232 -208) rotate(90)"/></g><g id="Layer_2"><path class="cls-2" d="m600.23,147c8.28-2.83,12.86-5.95,12.86-9.22s-4.93-6.61-13.81-9.53c6.5-3,10.49-7.08,10.26-11.38-.43-7.98-15.21-13.67-33.03-12.72-16.48.88-29.77,7.15-31.33,14.4-4.9-.52-10-.99-15.29-1.43-2.78-11.45-31.65-20.46-66.88-20.46-33.14,0-60.65,7.97-66.11,18.45-4.93.23-9.76.49-14.48.78,0-.04,0-.08,0-.12-.52-9.74-27.4-16.22-60.04-14.47s-58.68,11.06-58.15,20.8c.27,5.13,7.87,9.36,19.76,11.95-1.33,1.22-2.03,2.46-2.03,3.73,0,10.21,44.68,18.91,107.45,22.3-3.2,1.21-4.9,2.4-4.84,3.54.33,6.14,51.72,8.38,114.78,5,63.06-3.38,113.92-11.1,113.59-17.24-.1-1.82-4.67-3.29-12.7-4.38Z"/><path class="cls-2" d="m1393.3,156.68c4.95-2.95,7.69-6.19,7.69-9.59s-2.95-6.88-8.26-9.92c3.89-3.12,6.27-7.37,6.13-11.84-.26-8.3-9.1-14.23-19.75-13.24-9.86.92-17.8,7.44-18.73,14.99-2.93-.54-5.98-1.04-9.14-1.49-1.66-11.92-18.92-21.3-39.99-21.3-19.82,0-36.26,8.3-39.53,19.2-2.95.24-5.84.51-8.66.81,0-.04,0-.08,0-.12-.31-10.14-16.39-16.88-35.91-15.06-19.52,1.82-35.09,11.51-34.78,21.65.16,5.34,4.71,9.74,11.82,12.44-.8,1.27-1.21,2.56-1.21,3.88,0,10.63,26.72,19.69,64.25,23.21-1.91,1.26-2.93,2.5-2.89,3.68.2,6.39,30.93,8.73,68.64,5.21,37.71-3.52,68.12-11.55,67.92-17.94-.06-1.89-2.79-3.43-7.59-4.56Z"/><path class="cls-2" d="m1150.99,51.51c0-6.72-28.47-12.17-63.58-12.17-30.4,0-55.81,4.09-62.08,9.55-10.68-.41-22.45-.63-34.83-.63-48.41,0-87.65,3.45-87.65,7.72,0,.36.29.72.85,1.07-44.92.65-78.63,3.38-78.63,6.64,0,3.75,44.5,6.79,99.38,6.79,12.58,0,24.61-.16,35.69-.45-1.13,1.19-1.74,2.43-1.74,3.69,0,9.8,35.65,17.75,79.63,17.75s79.63-7.95,79.63-17.75c0-3.88-5.6-7.46-15.07-10.38,27.78-1.3,48.4-6.1,48.4-11.82Z"/><path class="cls-2" d="m1075.07,287.81c0-8.16,28.47-14.77,63.58-14.77,30.4,0,55.81,4.96,62.08,11.58,10.68-.49,22.45-.77,34.83-.77,48.41,0,87.65,4.19,87.65,9.36,0,.44-.29.88-.85,1.3,44.92.79,78.63,4.1,78.63,8.06,0,4.55-44.5,8.24-99.38,8.24-12.58,0-24.61-.19-35.69-.55,1.13,1.45,1.74,2.94,1.74,4.48,0,11.89-35.65,21.53-79.63,21.53-43.98,0-79.63-9.64-79.63-21.53,0-4.7,5.6-9.05,15.07-12.6-27.78-1.58-48.4-7.4-48.4-14.34Z"/><path class="cls-2" d="m911.47,226.05c0-8.07-41.99-14.62-93.8-14.62-30.02,0-56.75,2.2-73.92,5.62-12.9-6.05-38.38-10.16-67.72-10.16-42.36,0-76.7,8.58-76.7,19.16,0,1,.31,1.99.91,2.95-41.19,2.67-67.81,6.92-67.81,11.7,0,1.01,1.19,2,3.45,2.95-41.25,2.67-67.93,6.92-67.93,11.71,0,2.91,9.89,5.63,26.94,7.91-20.09,2.68-32.83,6.66-32.83,11.11,0,8.07,41.99,14.62,93.8,14.62s93.8-6.54,93.8-14.62c0-1.52-1.5-2.99-4.28-4.38,90.92-.31,163.51-6.75,163.51-14.64,0-1.01-1.19-2-3.45-2.95,41.25-2.67,67.93-6.92,67.93-11.71,0-.89-.92-1.75-2.67-2.6,24.62-2.63,40.77-7.05,40.77-12.06Z"/><path class="cls-2" d="m273.84,254.78c2.94-9-16.61-23.46-43.67-32.3-15.68-5.12-30.45-7.23-40.66-6.35-4.54-8.94-16.35-17.88-31.67-22.89-22.13-7.23-43.19-3.52-47.05,8.28-.37,1.12-.56,2.27-.6,3.45-22.49-4.05-37.94-3.86-39.69,1.47-.37,1.13-.11,2.43.73,3.87-22.52-4.06-38-3.87-39.75,1.46-1.06,3.25,3.12,7.96,11.19,13.41-11.47-.44-19.57,1.83-21.19,6.78-2.94,9,16.61,23.46,43.67,32.3,27.06,8.84,51.38,8.71,54.32-.29.56-1.7.31-3.59-.64-5.61,47.61,15.16,87.87,20.38,90.74,11.58.37-1.13.11-2.43-.73-3.87,22.52,4.06,38,3.87,39.75-1.46.32-.99.16-2.11-.45-3.35,13.82,1.26,23.87-.9,25.69-6.49Z"/></g><g id="Layer_3"><path class="cls-1" d="m902.45,228.1c0-4.94-25.86-9.09-60.77-10.24-11.63-2.71-26.99-4.36-43.84-4.36-25.08,0-46.87,3.65-57.95,9.02-.47,0-.94-.01-1.42-.01-1.93,0-3.83.03-5.72.08-6.32-7.7-21.5-13.13-39.24-13.13-9.34,0-17.97,1.51-24.97,4.06-3.21-.2-6.52-.31-9.9-.31-29.56,0-53.61,8.04-54.54,18.07-34.94.26-62.79,5.06-62.79,10.96,0,1.42,1.64,2.78,4.6,4.03-30.59,1.49-52.39,5.36-52.39,9.89,0,2.27,5.48,4.37,14.77,6.09-25.07,2.32-41.69,6.39-41.69,11.03,0,7.22,40.33,13.07,90.09,13.07s90.09-5.85,90.09-13.07c0-1.43-1.59-2.81-4.53-4.1,1.83-2.01,2.84-4.16,2.84-6.38,0-.56-.08-1.12-.21-1.67.45-.11.89-.22,1.31-.34,6.01,1.63,12.9,2.55,20.23,2.55,9.96,0,19.11-1.72,26.35-4.58,11.83,3.68,27.95,5.95,45.72,5.95,27.42,0,50.91-5.39,60.76-13.06.79,0,1.59.02,2.39.02,33.35,0,60.88-6.45,65.13-14.81,21.53-1.89,35.7-5.12,35.7-8.77Z"/><ellipse class="cls-1" cx="1121.04" cy="285.24" rx="27.34" ry="7.14"/><ellipse class="cls-1" cx="1140.01" cy="288.3" rx="32.04" ry="13.26"/><ellipse class="cls-1" cx="1167.36" cy="292.38" rx="32.04" ry="13.26"/><ellipse class="cls-1" cx="1244.29" cy="295.44" rx="72.24" ry="10.2"/><ellipse class="cls-1" cx="1156.34" cy="311.46" rx="41.02" ry="19.08"/><ellipse class="cls-1" cx="1181.03" cy="314.52" rx="41.02" ry="19.08"/><ellipse class="cls-1" cx="1222.05" cy="311.46" rx="41.02" ry="19.08"/><ellipse class="cls-1" cx="1316.33" cy="302.76" rx="81.01" ry="7.32"/><ellipse class="cls-1" cx="1107.98" cy="289.32" rx="27.34" ry="7.14"/><path class="cls-1" d="m1398.86,127.69c.84-5.76-6.34-11.58-16.05-13.01-9.71-1.42-18.27,2.09-19.11,7.85-.26,1.79.25,3.58,1.37,5.24-3.14-.74-6.43-1.38-9.85-1.88-2.64-.39-5.23-.67-7.76-.87-5.01-10.02-13.95-16.7-24.15-16.7-3.45,0-6.76.77-9.82,2.17-4.05-2.26-8.69-3.55-13.63-3.55-12.39,0-22.92,8.09-26.81,19.36-3.57-.54-7.37-.9-11.33-1.07,0-.04,0-.08,0-.13,0-7.7-10.61-13.94-23.71-13.94-4.27,0-8.28.67-11.74,1.83-.3,0-.59-.01-.89-.01-16.43,0-29.76,7.35-29.76,16.42,0,5.25,4.47,9.92,11.43,12.93-.49,1.11-.75,2.28-.75,3.49,0,6.13,6.74,11.33,16.09,13.2,7.4,4.23,18.14,7.76,30.35,9.55,5.8.85,11.39,1.23,16.56,1.19-1.99,1.04-3.07,2.14-3.04,3.25.15,4.57,18.94,7.67,41.98,6.92,5.18-.17,10.13-.52,14.69-1.01.12,0,.24.01.36.01,2.13,0,4.2-.3,6.2-.85,8.14-1.23,14.46-2.94,17.73-4.84,2.22,0,4.49-.03,6.81-.11,23.04-.75,41.59-5.05,41.44-9.62-.06-1.81-3.05-3.39-8.06-4.59,6.39-2.82,10.22-6.37,10.09-10.12-.07-2.18-1.47-4.2-3.9-5.98-1.23-2.41-3.86-4.82-7.57-7.07,6.85-.52,12.14-3.62,12.79-8.07Z"/><ellipse class="cls-1" cx="1051.28" cy="66.5" rx="18.99" ry="24.36"/><ellipse class="cls-1" cx="1029.04" cy="69.63" rx="23.48" ry="22.28" transform="translate(23.6 299.55) rotate(-16.75)"/><ellipse class="cls-1" cx="1069.51" cy="64.5" rx="18.99" ry="24.36"/><ellipse class="cls-1" cx="1105.56" cy="52.16" rx="40.27" ry="10.01"/><ellipse class="cls-1" cx="989.73" cy="60.16" rx="40.27" ry="10.01"/><ellipse class="cls-1" cx="1071.86" cy="74.51" rx="41.86" ry="14.35"/><ellipse class="cls-1" cx="1016.87" cy="73.33" rx="52.64" ry="15.53"/><ellipse class="cls-1" cx="950.22" cy="60.16" rx="40.27" ry="10.01"/><ellipse class="cls-1" cx="909.95" cy="65" rx="40.27" ry="4.51"/><ellipse class="cls-1" cx="876.29" cy="62.5" rx="40.27" ry="4.51"/><path class="cls-1" d="m610.1,138.42c0-4.51-7.24-8.45-17.99-10.55,10.2-1.96,17.25-6.14,17.25-10.98,0-6.72-13.56-12.17-30.29-12.17s-30.29,5.45-30.29,12.17c0,2.01,1.22,3.9,3.37,5.57-6.17-1.12-12.88-1.99-19.99-2.58-2.29-12.98-27.8-23.22-58.96-23.22-15.81,0-30.16,2.64-40.77,6.93-15.2,3.09-26.79,8.86-31.42,15.87-5.29-1.64-11.44-2.58-18-2.58-1.89,0-3.75.08-5.57.23-8.19-7.48-24.59-12.58-43.49-12.58-7.67,0-14.93.84-21.4,2.34-1.87-.12-3.78-.19-5.74-.19-19.81,0-35.87,6.55-35.87,14.63,0,4.95,6.02,9.32,15.23,11.97,4.87,9.98,23.1,17.51,45.21,18.05,6.07,4.56,17.92,7.66,31.54,7.66,6.54,0,12.66-.72,17.93-1.96,3.16.75,6.63,1.3,10.3,1.63-1.39,1.01-2.11,2.02-2.04,2.99.48,6.62,36.43,9.4,80.29,6.22,6.6-.48,13-1.07,19.12-1.74,7.16.64,14.74.99,22.59.99,19.18,0,36.77-2.05,50.52-5.46,3.83.7,8.09,1.1,12.57,1.1,16.73,0,30.29-5.45,30.29-12.17,0-1.62-.8-3.17-2.24-4.59,4.89-2.08,7.81-4.71,7.81-7.58Z"/><path class="cls-1" d="m247.25,231.26c-4.17-1.76-8.28-3.02-12.14-3.82-2.32-1.59-4.86-3.06-7.59-4.33-10.14-4.7-20.54-5.7-28-3.36-4.71-2.37-10.16-3.73-15.98-3.73-.31,0-.62.01-.93.02-3.88-9.48-14.17-18.11-27.74-22.03-18.87-5.45-37.25.22-42.4,12.66-18.27-5.07-34.94-3.12-39.03,4.34-.95.06-1.88.16-2.8.28-17.34-4.03-31.78-2.99-33.45,2.8-.98,3.39,2.61,7.73,9.12,11.92-11.37-.62-19.86,1.88-21.37,7.1-2.26,7.83,11.98,18.81,31.8,24.53.84.24,1.68.47,2.51.68,4.35,3.24,9.56,5.87,15.41,7.55,17.43,5.03,34.6.04,41.37-11.19,3.91,1.93,8.29,3.63,13,4.99,11.05,3.19,21.56,3.81,29.16,2.2,5.91,6.59,15.06,10.82,25.34,10.82,9.4,0,17.85-3.53,23.74-9.17,15.53,6.48,30.39,6.24,33.27-.58.21-.5.34-1.02.42-1.56,1.53-.66,2.9-1.48,4.08-2.46,12.33,3.41,22.87,2.26,25.24-3.37,2.89-6.85-7.42-17.75-23.03-24.33Z"/></g></svg>