<svg width="582" height="600" viewBox="0 0 582 600" fill="none" xmlns="http://www.w3.org/2000/svg">
<g clip-path="url(#clip0_14_2)">
<mask id="mask0_14_2" style="mask-type:luminance" maskUnits="userSpaceOnUse" x="0" y="0" width="582" height="780">
<path d="M0 -2.32195e-05H581.333V779.116H0V-2.32195e-05Z" fill="white"/>
</mask>
<g mask="url(#mask0_14_2)">
<path d="M297.036 50.1538C297.036 47.5685 293.903 37.6565 290.047 37.6565C286.18 37.6565 283.054 47.5685 283.054 50.1538V210.223C283.054 212.8 286.18 214.894 290.047 214.894C293.903 214.894 297.036 212.8 297.036 210.223V50.1538Z" fill="white"/>
<path d="M220.893 459.537C211.405 452.515 201.253 445.841 190.565 439.669C134.679 407.405 76.2872 398.117 40.7899 412.313C74.1712 391.834 98.3565 333.457 98.3565 264.485C98.3565 199.963 77.5632 144.689 47.5205 121.042L175.555 192.497C156.695 216.791 145.466 247.313 145.466 280.454C145.466 332.174 172.813 377.51 213.826 402.79C213.658 408.173 213.697 413.723 213.621 419.269C164.379 392.521 131.105 340.431 131.105 280.454C131.105 250.094 139.622 221.701 154.471 197.622L93.4445 162.647C106.729 190.221 113.527 224.542 113.527 264.485C113.527 319.531 103.711 364.203 80.5432 391.913C115.154 388.915 152.937 402.019 196.517 427.181C202.703 430.757 208.715 434.329 214.545 437.914C216.637 445.457 218.753 452.658 220.893 459.537Z" fill="white"/>
<path d="M366.32 401.516C406.211 376.005 432.656 331.321 432.656 280.455C432.656 247.291 421.519 216.673 402.628 192.359L530.894 121.313C501.208 145.255 480.591 200.449 480.591 264.485C480.591 334.384 505.219 393.46 539.303 413.184C504.05 397.665 444.168 406.729 387.106 439.668C377.336 445.309 368.262 451.367 359.898 457.729C362.004 450.783 364.128 443.468 366.267 435.783C370.835 432.911 375.602 430.045 380.56 427.181C424.147 402.02 463.77 388.916 498.382 391.913C475.212 364.204 465.398 319.532 465.39 264.485C465.398 226.196 472.822 191.137 485.135 164.015L424.016 197.744C438.776 221.765 447.026 250.193 447.026 280.455C447.026 339.469 414.66 390.924 366.71 418.039C366.626 412.455 366.496 406.943 366.32 401.516Z" fill="white"/>
<path d="M214.819 179.861C213.306 179.861 207.634 182.303 207.634 185.445V230.255C207.634 233.417 213.338 235.961 214.819 235.961C216.3 235.961 221.999 233.417 221.999 230.255V185.445C221.999 182.303 216.331 179.861 214.819 179.861Z" fill="white"/>
<path d="M365.152 179.861C363.639 179.861 357.971 182.303 357.971 185.445V230.255C357.971 233.417 363.671 235.961 365.152 235.961C366.634 235.961 372.332 233.417 372.332 230.255V185.445C372.332 182.303 366.664 179.861 365.152 179.861Z" fill="white"/>
<path d="M290.047 37.6562C293.904 37.6562 297.036 47.5682 297.036 50.1536V210.223C297.036 212.8 293.904 214.894 290.047 214.894C286.182 214.894 283.054 212.8 283.054 210.223V50.1536C283.054 47.5682 286.182 37.6562 290.047 37.6562Z" fill="white"/>
<path d="M279.143 56.0244H253.388V47.2044H279.567C279.283 48.4617 279.143 49.5044 279.143 50.1537V56.0244Z" fill="white"/>
<path d="M300.948 56.0276V50.1543C300.948 49.4996 300.807 48.4623 300.52 47.1943L326.705 47.2049V56.0249C326.705 56.0249 300.948 56.0249 300.948 56.0276Z" fill="white"/>
<path d="M356.707 367.912L301.914 336.716L326.271 322.804L354.235 338.628C355.194 348.192 356.019 357.958 356.707 367.912Z" fill="white"/>
<path d="M338.301 315.944L350.753 308.848C351.421 313.848 352.049 318.919 352.647 324.062L338.301 315.944Z" fill="white"/>
<path d="M234.921 271.12L277.839 295.4L253.51 309.143L230.871 296.252C232.125 287.631 233.493 279.248 234.921 271.12Z" fill="white"/>
<path d="M227.301 323.935L241.437 315.952C241.437 315.948 229.134 308.939 229.134 308.939C228.489 313.871 227.878 318.87 227.301 323.935Z" fill="white"/>
<path d="M225.762 338.418C224.815 348.031 224 357.851 223.328 367.858L277.894 336.715L253.319 322.721L225.762 338.418Z" fill="white"/>
<path d="M265.32 315.88L289.596 302.057L314.232 315.986L289.902 329.87L265.32 315.88Z" fill="white"/>
<path d="M301.63 295.201L344.786 270.616C346.284 278.953 347.656 287.303 348.965 296.16L326.24 309.127C326.24 309.127 301.63 295.197 301.63 295.201Z" fill="white"/>
<path d="M332.889 216.059C336.331 229.212 339.611 243.578 342.609 258.986L289.924 288.579L237.193 258.746C240.135 243.432 243.355 229.144 246.745 216.059H225.911V200.952H250.887C260.091 169.222 270.167 146.232 279.139 135.171L279.143 210.223C279.143 215.035 283.932 218.806 290.047 218.806C296.157 218.806 300.948 215.035 300.948 210.223L300.951 135.53C309.613 146.724 319.548 169.546 328.715 200.956L354.061 200.952V216.059H332.889Z" fill="white"/>
<path d="M290.704 433.515C268.1 433.515 247.632 439.496 244.377 443.609C268.634 535.208 288.51 537.855 290.704 537.855C298.105 537.855 313.796 525.551 335.769 443.235C333.209 439.236 313.681 433.515 290.704 433.515ZM222.477 382.041L289.928 343.559L357.578 382.095C358.465 398.551 358.945 415.46 358.945 432.705C330.201 536.268 308.254 557.409 290.833 557.409C274.28 557.409 248.789 533.34 221.144 432.705C221.144 415.441 221.61 398.517 222.477 382.041Z" fill="white"/>
</g>
</g>
<defs>
<clipPath id="clip0_14_2">
<rect width="581.333" height="600" fill="white"/>
</clipPath>
</defs>
</svg>
